<svg width="47" height="48" viewBox="0 0 47 48" fill="none" xmlns="http://www.w3.org/2000/svg">
<ellipse cx="23.5" cy="24" rx="23.5" ry="24" fill="white"/>
<path d="M13.8337 34.1668C13.1691 34.1668 12.6002 33.9302 12.1269 33.4569C11.6536 32.9837 11.417 32.4147 11.417 31.7502V17.2502C11.417 16.5856 11.6536 16.0167 12.1269 15.5434C12.6002 15.0701 13.1691 14.8335 13.8337 14.8335H33.167C33.8316 14.8335 34.4005 15.0701 34.8738 15.5434C35.347 16.0167 35.5837 16.5856 35.5837 17.2502V31.7502C35.5837 32.4147 35.347 32.9837 34.8738 33.4569C34.4005 33.9302 33.8316 34.1668 33.167 34.1668H13.8337ZM23.5003 25.7085L13.8337 19.6668V31.7502H33.167V19.6668L23.5003 25.7085ZM23.5003 23.2918L33.167 17.2502H13.8337L23.5003 23.2918ZM13.8337 19.6668V17.2502V31.7502V19.6668Z" fill="#1D1B20"/>
</svg>
