<svg width="270" height="112" viewBox="0 0 270 112" fill="none" xmlns="http://www.w3.org/2000/svg">
<g filter="url(#filter0_f_86_136)">
<path d="M42.8687 10.5H257C257.828 10.5 258.5 11.1716 258.5 12V34.1135C258.5 34.5732 258.289 35.0075 257.928 35.2919L177.536 98.6152C177.271 98.8235 176.944 98.9368 176.607 98.9368H12C11.1716 98.9368 10.5 98.2653 10.5 97.4368V38.8194C10.5 38.385 10.6883 37.972 11.0162 37.6871L41.8849 10.8677C42.1578 10.6306 42.5072 10.5 42.8687 10.5Z" fill="#121212" stroke="white" stroke-width="7"/>
<path d="M258.84 59.0886V99.3014C258.84 100.13 258.168 100.801 257.34 100.801H242.84H207.5C206.085 100.801 205.457 99.0224 206.558 98.134L256.398 57.9212C257.379 57.1296 258.84 57.8279 258.84 59.0886Z" fill="#121212" stroke="white" stroke-width="7"/>
</g>
<path d="M42.8687 8.5H257C258.933 8.5 260.5 10.067 260.5 12V34.1135C260.5 35.1861 260.008 36.1994 259.166 36.863L178.773 100.186C178.156 100.672 177.393 100.937 176.607 100.937H12C10.067 100.937 8.5 99.3698 8.5 97.4368V38.8194C8.5 37.8058 8.93938 36.8421 9.70449 36.1773L40.5732 9.35791C41.2099 8.80466 42.0251 8.5 42.8687 8.5Z" fill="#121212" stroke="white" stroke-width="3"/>
<path d="M260.84 59.0886V99.3014C260.84 101.234 259.273 102.801 257.34 102.801H242.84H207.5C204.198 102.801 202.733 98.6504 205.302 96.5774L255.142 56.3646C257.431 54.5175 260.84 56.147 260.84 59.0886Z" fill="#121212" stroke="white" stroke-width="3"/>
<defs>
<filter id="filter0_f_86_136" x="0" y="0" width="269.34" height="111.301" filterUnits="userSpaceOnUse" color-interpolation-filters="sRGB">
<feFlood flood-opacity="0" result="BackgroundImageFix"/>
<feBlend mode="normal" in="SourceGraphic" in2="BackgroundImageFix" result="shape"/>
<feGaussianBlur stdDeviation="3.5" result="effect1_foregroundBlur_86_136"/>
</filter>
</defs>
</svg>
