<svg width="1922" height="1091" viewBox="0 0 1922 1091" fill="none" xmlns="http://www.w3.org/2000/svg">
<g filter="url(#filter0_d_61_77)">
<path fill-rule="evenodd" clip-rule="evenodd" d="M5 0H1918V1071H5V0ZM854.617 65H854.995C882.609 65 904.995 87.3858 904.995 115V141C904.995 168.614 927.381 191 954.995 191H1646.54H1647.46C1660.83 191 1673.64 196.35 1683.03 205.856L1766.57 290.392C1775.81 299.751 1781 312.379 1781 325.536V883C1781 910.614 1758.61 933 1731 933H1730.01H835.463H835.159C821.788 933 808.975 927.645 799.581 918.132L758.341 876.368C748.946 866.855 736.133 861.5 722.763 861.5H412C384.386 861.5 362 839.114 362 811.5V179.154V179.144C362 165.627 367.472 152.687 377.17 143.271L443.235 79.127C452.566 70.0674 465.059 65 478.065 65H478.121H854.617Z" fill="#130E30"/>
<g filter="url(#filter1_f_61_77)">
<path d="M854.617 66H478.065C465.059 66 452.566 71.0674 443.235 80.127L377.17 144.271C367.472 153.687 362 166.627 362 180.144V812.5C362 840.114 384.386 862.5 412 862.5H722.763C736.133 862.5 748.946 867.855 758.341 877.368L799.581 919.132C808.975 928.645 821.788 934 835.159 934H1730.01C1757.63 934 1780.01 911.614 1780.01 884V326.526C1780.01 313.375 1774.83 300.753 1765.59 291.395L1682.12 206.868C1672.73 197.355 1659.92 192 1646.54 192H954.617C927.003 192 904.617 169.614 904.617 142V116C904.617 88.3858 882.231 66 854.617 66Z" stroke="white" stroke-width="5"/>
</g>
<path d="M854.995 66H478.121C465.122 66 452.634 71.0627 443.304 80.1149L377.182 144.269C367.477 153.686 362 166.632 362 180.154V812.5C362 840.114 384.386 862.5 412 862.5H723.039C736.403 862.5 749.211 867.85 758.604 877.356L799.898 919.144C809.291 928.65 822.099 934 835.463 934H1731C1758.61 934 1781 911.614 1781 884V326.536C1781 313.379 1775.81 300.751 1766.57 291.392L1683.03 206.856C1673.64 197.35 1660.83 192 1647.46 192H954.995C927.381 192 904.995 169.614 904.995 142V116C904.995 88.3858 882.609 66 854.995 66Z" stroke="white" stroke-width="3"/>
</g>
<g filter="url(#filter2_f_61_77)">
<line x1="20" y1="1068.5" x2="1874" y2="1068.5" stroke="white" stroke-width="5"/>
</g>
<line x1="5" y1="1069.5" x2="1918" y2="1069.5" stroke="white" stroke-width="3"/>
<defs>
<filter id="filter0_d_61_77" x="1" y="0" width="1921" height="1079" filterUnits="userSpaceOnUse" color-interpolation-filters="sRGB">
<feFlood flood-opacity="0" result="BackgroundImageFix"/>
<feColorMatrix in="SourceAlpha" type="matrix" values="0 0 0 0 0 0 0 0 0 0 0 0 0 0 0 0 0 0 127 0" result="hardAlpha"/>
<feOffset dy="4"/>
<feGaussianBlur stdDeviation="2"/>
<feComposite in2="hardAlpha" operator="out"/>
<feColorMatrix type="matrix" values="0 0 0 0 0 0 0 0 0 0 0 0 0 0 0 0 0 0 0.25 0"/>
<feBlend mode="normal" in2="BackgroundImageFix" result="effect1_dropShadow_61_77"/>
<feBlend mode="normal" in="SourceGraphic" in2="effect1_dropShadow_61_77" result="shape"/>
</filter>
<filter id="filter1_f_61_77" x="339.5" y="43.5" width="1463.01" height="913" filterUnits="userSpaceOnUse" color-interpolation-filters="sRGB">
<feFlood flood-opacity="0" result="BackgroundImageFix"/>
<feBlend mode="normal" in="SourceGraphic" in2="BackgroundImageFix" result="shape"/>
<feGaussianBlur stdDeviation="10" result="effect1_foregroundBlur_61_77"/>
</filter>
<filter id="filter2_f_61_77" x="0" y="1046" width="1894" height="45.0002" filterUnits="userSpaceOnUse" color-interpolation-filters="sRGB">
<feFlood flood-opacity="0" result="BackgroundImageFix"/>
<feBlend mode="normal" in="SourceGraphic" in2="BackgroundImageFix" result="shape"/>
<feGaussianBlur stdDeviation="10" result="effect1_foregroundBlur_61_77"/>
</filter>
</defs>
</svg>
