<svg width="1952" height="1091" viewBox="0 0 1952 1091" fill="none" xmlns="http://www.w3.org/2000/svg">
<g filter="url(#filter0_d_61_77)">
<path fill-rule="evenodd" clip-rule="evenodd" d="M20 0H1933V1071H20V0ZM869.617 65H869.995C897.609 65 919.995 87.3858 919.995 115V141C919.995 168.614 942.381 191 969.995 191H1661.54H1662.46C1675.83 191 1688.64 196.35 1698.03 205.856L1781.57 290.392C1790.81 299.751 1796 312.379 1796 325.536V883C1796 910.614 1773.61 933 1746 933H1745.01H850.463H850.159C836.788 933 823.975 927.645 814.581 918.132L773.341 876.368C763.946 866.855 751.133 861.5 737.763 861.5H427C399.386 861.5 377 839.114 377 811.5V179.154V179.144C377 165.627 382.472 152.687 392.17 143.271L458.235 79.127C467.566 70.0674 480.059 65 493.065 65H493.121H869.617Z" fill="#130E30"/>
<g filter="url(#filter1_f_61_77)">
<path d="M869.617 66H493.065C480.059 66 467.566 71.0674 458.235 80.127L392.17 144.271C382.472 153.687 377 166.627 377 180.144V812.5C377 840.114 399.386 862.5 427 862.5H737.763C751.133 862.5 763.946 867.855 773.341 877.368L814.581 919.132C823.975 928.645 836.788 934 850.159 934H1745.01C1772.63 934 1795.01 911.614 1795.01 884V326.526C1795.01 313.375 1789.83 300.753 1780.59 291.395L1697.12 206.868C1687.73 197.355 1674.92 192 1661.54 192H969.617C942.003 192 919.617 169.614 919.617 142V116C919.617 88.3858 897.231 66 869.617 66Z" stroke="white" stroke-width="5"/>
</g>
<path d="M869.995 66H493.121C480.122 66 467.634 71.0627 458.304 80.1149L392.182 144.269C382.477 153.686 377 166.632 377 180.154V812.5C377 840.114 399.386 862.5 427 862.5H738.039C751.403 862.5 764.211 867.85 773.604 877.356L814.898 919.144C824.291 928.65 837.099 934 850.463 934H1746C1773.61 934 1796 911.614 1796 884V326.536C1796 313.379 1790.81 300.751 1781.57 291.392L1698.03 206.856C1688.64 197.35 1675.83 192 1662.46 192H969.995C942.381 192 919.995 169.614 919.995 142V116C919.995 88.3858 897.609 66 869.995 66Z" stroke="white" stroke-width="3"/>
</g>
<g filter="url(#filter2_f_61_77)">
<line x1="20" y1="1068.5" x2="1932" y2="1068.5" stroke="white" stroke-width="5"/>
</g>
<line x1="20" y1="1069.5" x2="1933" y2="1069.5" stroke="white" stroke-width="3"/>
<defs>
<filter id="filter0_d_61_77" x="16" y="0" width="1921" height="1079" filterUnits="userSpaceOnUse" color-interpolation-filters="sRGB">
<feFlood flood-opacity="0" result="BackgroundImageFix"/>
<feColorMatrix in="SourceAlpha" type="matrix" values="0 0 0 0 0 0 0 0 0 0 0 0 0 0 0 0 0 0 127 0" result="hardAlpha"/>
<feOffset dy="4"/>
<feGaussianBlur stdDeviation="2"/>
<feComposite in2="hardAlpha" operator="out"/>
<feColorMatrix type="matrix" values="0 0 0 0 0 0 0 0 0 0 0 0 0 0 0 0 0 0 0.25 0"/>
<feBlend mode="normal" in2="BackgroundImageFix" result="effect1_dropShadow_61_77"/>
<feBlend mode="normal" in="SourceGraphic" in2="effect1_dropShadow_61_77" result="shape"/>
</filter>
<filter id="filter1_f_61_77" x="354.5" y="43.5" width="1463.01" height="913" filterUnits="userSpaceOnUse" color-interpolation-filters="sRGB">
<feFlood flood-opacity="0" result="BackgroundImageFix"/>
<feBlend mode="normal" in="SourceGraphic" in2="BackgroundImageFix" result="shape"/>
<feGaussianBlur stdDeviation="10" result="effect1_foregroundBlur_61_77"/>
</filter>
<filter id="filter2_f_61_77" x="0" y="1046" width="1952" height="45.0002" filterUnits="userSpaceOnUse" color-interpolation-filters="sRGB">
<feFlood flood-opacity="0" result="BackgroundImageFix"/>
<feBlend mode="normal" in="SourceGraphic" in2="BackgroundImageFix" result="shape"/>
<feGaussianBlur stdDeviation="10" result="effect1_foregroundBlur_61_77"/>
</filter>
</defs>
</svg>
